<?xml version="1.0" encoding="UTF-8"?>
<svg xmlns="http://www.w3.org/2000/svg" xmlns:xlink="http://www.w3.org/1999/xlink" width="1920" height="1080" viewBox="0 0 1920 1080">
<defs>
<g>
<g id="glyph-0-0">
<path d="M 0.101562 -0.160156 C 0.425781 -0.195312 0.640625 -0.253906 0.734375 -0.335938 C 0.832031 -0.417969 0.882812 -0.628906 0.882812 -0.964844 L 0.882812 -4.917969 C 0.882812 -5.234375 0.832031 -5.441406 0.738281 -5.535156 C 0.640625 -5.632812 0.429688 -5.695312 0.101562 -5.714844 L 0.101562 -5.882812 L 4.824219 -5.882812 L 4.851562 -4.605469 L 4.628906 -4.605469 C 4.550781 -5 4.4375 -5.253906 4.289062 -5.371094 C 4.136719 -5.484375 3.800781 -5.542969 3.28125 -5.542969 L 2.074219 -5.542969 C 1.945312 -5.542969 1.863281 -5.523438 1.832031 -5.480469 C 1.804688 -5.4375 1.789062 -5.359375 1.789062 -5.242188 L 1.789062 -3.261719 L 3.15625 -3.261719 C 3.535156 -3.261719 3.777344 -3.316406 3.878906 -3.429688 C 3.984375 -3.542969 4.070312 -3.769531 4.132812 -4.113281 L 4.339844 -4.113281 L 4.339844 -2.058594 L 4.132812 -2.058594 C 4.066406 -2.402344 3.980469 -2.628906 3.875 -2.742188 C 3.773438 -2.851562 3.53125 -2.910156 3.15625 -2.910156 L 1.789062 -2.910156 L 1.789062 -0.707031 C 1.789062 -0.53125 1.84375 -0.425781 1.957031 -0.394531 C 2.066406 -0.363281 2.398438 -0.347656 2.957031 -0.347656 C 3.558594 -0.347656 4.003906 -0.414062 4.289062 -0.542969 C 4.574219 -0.675781 4.832031 -0.996094 5.0625 -1.5 L 5.308594 -1.5 L 4.90625 0 L 0.101562 0 Z "/>
</g>
</g>
</defs>
<g fill="rgb(0%, 0%, 0%)" fill-opacity="1">
<use xlink:href="#glyph-0-0" x="30" y="26.666992"/>
</g>
</svg>
