<?xml version="1.0" encoding="UTF-8"?>
<svg xmlns="http://www.w3.org/2000/svg" xmlns:xlink="http://www.w3.org/1999/xlink" width="1920" height="1080" viewBox="0 0 1920 1080">
<defs>
<g>
<g id="glyph-0-0">
<path d="M 2.726562 -1.570312 L 2.019531 -3.253906 L 1.320312 -1.570312 Z M 0.0898438 0 L 0.0898438 -0.109375 C 0.246094 -0.128906 0.363281 -0.1875 0.441406 -0.289062 C 0.519531 -0.390625 0.65625 -0.667969 0.847656 -1.117188 L 2.121094 -4.113281 L 2.242188 -4.113281 L 3.761719 -0.652344 C 3.863281 -0.421875 3.945312 -0.277344 4.003906 -0.222656 C 4.066406 -0.167969 4.167969 -0.128906 4.3125 -0.109375 L 4.3125 0 L 2.757812 0 L 2.757812 -0.109375 C 2.9375 -0.125 3.050781 -0.144531 3.101562 -0.167969 C 3.152344 -0.191406 3.179688 -0.246094 3.179688 -0.335938 C 3.179688 -0.367188 3.171875 -0.417969 3.152344 -0.496094 C 3.132812 -0.570312 3.101562 -0.652344 3.066406 -0.734375 L 2.8125 -1.320312 L 1.214844 -1.320312 C 1.054688 -0.921875 0.960938 -0.679688 0.929688 -0.589844 C 0.898438 -0.5 0.882812 -0.429688 0.882812 -0.378906 C 0.882812 -0.277344 0.925781 -0.203125 1.007812 -0.164062 C 1.058594 -0.140625 1.15625 -0.121094 1.300781 -0.109375 L 1.300781 0 Z "/>
</g>
</g>
</defs>
<g fill="rgb(100%, 100%, 100%)" fill-opacity="1">
<use xlink:href="#glyph-0-0" x="30" y="24.583008"/>
</g>
</svg>
