<?xml version="1.0" encoding="UTF-8"?>
<svg xmlns="http://www.w3.org/2000/svg" xmlns:xlink="http://www.w3.org/1999/xlink" width="854" height="480" viewBox="0 0 854 480">
<defs>
<g>
<g id="glyph-0-0">
<path d="M 0.535156 -4.042969 L 1.824219 -4.042969 L 1.824219 -3.898438 L 1.28125 -3.898438 C 1.160156 -3.898438 1.078125 -3.859375 1.039062 -3.78125 C 1.015625 -3.742188 1.003906 -3.6875 1.003906 -3.617188 L 1.003906 0.488281 C 1.003906 0.582031 1.015625 0.648438 1.042969 0.691406 C 1.085938 0.769531 1.171875 0.808594 1.300781 0.808594 L 1.824219 0.808594 L 1.824219 0.964844 L 0.535156 0.964844 Z "/>
</g>
<g id="glyph-0-1">
<path d="M 0.183594 -0.0703125 C 0.910156 -0.824219 1.402344 -1.378906 1.664062 -1.734375 C 1.925781 -2.085938 2.054688 -2.433594 2.054688 -2.769531 C 2.054688 -3.0625 1.976562 -3.289062 1.816406 -3.441406 C 1.65625 -3.59375 1.46875 -3.671875 1.246094 -3.671875 C 0.972656 -3.671875 0.753906 -3.574219 0.585938 -3.375 C 0.492188 -3.265625 0.402344 -3.097656 0.316406 -2.871094 L 0.1875 -2.898438 C 0.289062 -3.355469 0.457031 -3.671875 0.695312 -3.851562 C 0.933594 -4.027344 1.1875 -4.117188 1.457031 -4.117188 C 1.792969 -4.117188 2.066406 -4.011719 2.273438 -3.800781 C 2.480469 -3.589844 2.585938 -3.328125 2.585938 -3.023438 C 2.585938 -2.695312 2.472656 -2.382812 2.25 -2.078125 C 2.023438 -1.777344 1.535156 -1.238281 0.785156 -0.464844 L 2.152344 -0.464844 C 2.34375 -0.464844 2.480469 -0.488281 2.558594 -0.535156 C 2.636719 -0.582031 2.722656 -0.691406 2.820312 -0.867188 L 2.898438 -0.832031 L 2.566406 0 L 0.183594 0 Z "/>
</g>
<g id="glyph-0-2">
<path d="M 1.492188 0.964844 L 0.203125 0.964844 L 0.203125 0.816406 L 0.75 0.816406 C 0.867188 0.816406 0.945312 0.777344 0.992188 0.703125 C 1.011719 0.664062 1.023438 0.609375 1.023438 0.539062 L 1.023438 -3.570312 C 1.023438 -3.667969 1.003906 -3.746094 0.964844 -3.800781 C 0.925781 -3.859375 0.847656 -3.886719 0.726562 -3.886719 L 0.203125 -3.886719 L 0.203125 -4.042969 L 1.492188 -4.042969 Z "/>
</g>
</g>
</defs>
<g fill="rgb(0%, 0%, 0%)" fill-opacity="1">
<use xlink:href="#glyph-0-0" x="30" y="24.583008"/>
<use xlink:href="#glyph-0-1" x="32" y="24.583008"/>
<use xlink:href="#glyph-0-2" x="35" y="24.583008"/>
</g>
</svg>
