<?xml version="1.0" encoding="UTF-8"?>
<svg xmlns="http://www.w3.org/2000/svg" xmlns:xlink="http://www.w3.org/1999/xlink" width="854" height="480" viewBox="0 0 854 480">
<defs>
<g>
<g id="glyph-0-0">
<path d="M 0.527344 -3.96875 L 1.789062 -3.96875 L 1.789062 -3.828125 L 1.257812 -3.828125 C 1.140625 -3.828125 1.0625 -3.789062 1.019531 -3.714844 C 0.996094 -3.675781 0.984375 -3.621094 0.984375 -3.554688 L 0.984375 0.480469 C 0.984375 0.570312 0.996094 0.636719 1.023438 0.679688 C 1.066406 0.757812 1.148438 0.792969 1.277344 0.792969 L 1.789062 0.792969 L 1.789062 0.945312 L 0.527344 0.945312 Z "/>
</g>
<g id="glyph-0-1">
<path d="M 0.179688 -0.0664062 C 0.894531 -0.808594 1.378906 -1.355469 1.632812 -1.703125 C 1.890625 -2.050781 2.019531 -2.390625 2.019531 -2.71875 C 2.019531 -3.007812 1.941406 -3.226562 1.785156 -3.378906 C 1.628906 -3.53125 1.441406 -3.605469 1.226562 -3.605469 C 0.957031 -3.605469 0.742188 -3.507812 0.574219 -3.3125 C 0.484375 -3.207031 0.394531 -3.039062 0.3125 -2.820312 L 0.183594 -2.84375 C 0.28125 -3.292969 0.449219 -3.605469 0.679688 -3.78125 C 0.914062 -3.957031 1.164062 -4.042969 1.433594 -4.042969 C 1.761719 -4.042969 2.03125 -3.9375 2.234375 -3.730469 C 2.4375 -3.523438 2.539062 -3.269531 2.539062 -2.96875 C 2.539062 -2.648438 2.429688 -2.339844 2.210938 -2.042969 C 1.988281 -1.746094 1.507812 -1.21875 0.769531 -0.457031 L 2.117188 -0.457031 C 2.304688 -0.457031 2.433594 -0.480469 2.511719 -0.523438 C 2.585938 -0.570312 2.671875 -0.679688 2.769531 -0.851562 L 2.84375 -0.816406 L 2.519531 0 L 0.179688 0 Z "/>
</g>
<g id="glyph-0-2">
<path d="M 1.464844 0.945312 L 0.199219 0.945312 L 0.199219 0.800781 L 0.734375 0.800781 C 0.851562 0.800781 0.929688 0.765625 0.972656 0.691406 C 0.992188 0.652344 1.003906 0.597656 1.003906 0.53125 L 1.003906 -3.507812 C 1.003906 -3.601562 0.984375 -3.679688 0.949219 -3.734375 C 0.910156 -3.789062 0.832031 -3.816406 0.714844 -3.816406 L 0.199219 -3.816406 L 0.199219 -3.96875 L 1.464844 -3.96875 Z "/>
</g>
</g>
</defs>
<g fill="rgb(0%, 0%, 0%)" fill-opacity="1">
<use xlink:href="#glyph-0-0" x="30" y="24.5"/>
<use xlink:href="#glyph-0-1" x="32" y="24.5"/>
<use xlink:href="#glyph-0-2" x="35" y="24.5"/>
</g>
</svg>
