<?xml version="1.0" encoding="UTF-8"?>
<svg xmlns="http://www.w3.org/2000/svg" xmlns:xlink="http://www.w3.org/1999/xlink" width="854" height="480" viewBox="0 0 854 480">
<defs>
<g>
<g id="glyph-0-0">
<path d="M 0.226562 0 C 0.25 -0.433594 0.339844 -0.8125 0.496094 -1.136719 C 0.652344 -1.457031 0.957031 -1.75 1.410156 -2.015625 L 2.085938 -2.40625 C 2.390625 -2.582031 2.605469 -2.730469 2.726562 -2.855469 C 2.917969 -3.050781 3.015625 -3.273438 3.015625 -3.527344 C 3.015625 -3.820312 2.925781 -4.054688 2.75 -4.226562 C 2.574219 -4.398438 2.339844 -4.484375 2.046875 -4.484375 C 1.609375 -4.484375 1.308594 -4.320312 1.144531 -3.992188 C 1.054688 -3.816406 1.003906 -3.570312 0.996094 -3.257812 L 0.347656 -3.257812 C 0.355469 -3.699219 0.4375 -4.058594 0.59375 -4.335938 C 0.867188 -4.824219 1.351562 -5.066406 2.050781 -5.066406 C 2.628906 -5.066406 3.050781 -4.910156 3.316406 -4.597656 C 3.582031 -4.285156 3.71875 -3.9375 3.71875 -3.554688 C 3.71875 -3.152344 3.574219 -2.804688 3.289062 -2.519531 C 3.125 -2.351562 2.832031 -2.148438 2.40625 -1.910156 L 1.921875 -1.644531 C 1.691406 -1.515625 1.511719 -1.394531 1.378906 -1.28125 C 1.144531 -1.074219 0.996094 -0.847656 0.933594 -0.597656 L 3.691406 -0.597656 L 3.691406 0 Z "/>
</g>
<g id="glyph-0-1">
<path d="M 2.386719 -1.789062 L 2.386719 -4.078125 L 0.769531 -1.789062 Z M 2.398438 0 L 2.398438 -1.234375 L 0.183594 -1.234375 L 0.183594 -1.855469 L 2.496094 -5.0625 L 3.03125 -5.0625 L 3.03125 -1.789062 L 3.777344 -1.789062 L 3.777344 -1.234375 L 3.03125 -1.234375 L 3.03125 0 Z "/>
</g>
<g id="glyph-0-2">
<path d="M 0.617188 -0.769531 L 1.355469 -0.769531 L 1.355469 0 L 0.617188 0 Z "/>
</g>
<g id="glyph-0-3">
<path d="M 0.960938 -1.21875 C 0.980469 -0.871094 1.113281 -0.628906 1.363281 -0.492188 C 1.492188 -0.421875 1.640625 -0.386719 1.800781 -0.386719 C 2.105469 -0.386719 2.363281 -0.515625 2.578125 -0.765625 C 2.792969 -1.019531 2.945312 -1.53125 3.03125 -2.304688 C 2.890625 -2.082031 2.71875 -1.925781 2.507812 -1.835938 C 2.300781 -1.746094 2.078125 -1.699219 1.835938 -1.699219 C 1.351562 -1.699219 0.964844 -1.851562 0.683594 -2.15625 C 0.398438 -2.457031 0.257812 -2.847656 0.257812 -3.324219 C 0.257812 -3.785156 0.398438 -4.1875 0.675781 -4.535156 C 0.957031 -4.882812 1.371094 -5.058594 1.914062 -5.058594 C 2.652344 -5.058594 3.160156 -4.726562 3.4375 -4.0625 C 3.59375 -3.699219 3.671875 -3.242188 3.671875 -2.695312 C 3.671875 -2.078125 3.578125 -1.527344 3.394531 -1.050781 C 3.085938 -0.257812 2.5625 0.140625 1.828125 0.140625 C 1.332031 0.140625 0.957031 0.0117188 0.703125 -0.246094 C 0.445312 -0.503906 0.316406 -0.828125 0.316406 -1.21875 Z M 1.921875 -2.257812 C 2.171875 -2.257812 2.402344 -2.339844 2.613281 -2.503906 C 2.820312 -2.671875 2.921875 -2.960938 2.921875 -3.375 C 2.921875 -3.746094 2.832031 -4.023438 2.644531 -4.207031 C 2.457031 -4.386719 2.21875 -4.480469 1.929688 -4.480469 C 1.617188 -4.480469 1.371094 -4.375 1.191406 -4.167969 C 1.007812 -3.960938 0.917969 -3.679688 0.917969 -3.332031 C 0.917969 -3.003906 0.996094 -2.742188 1.15625 -2.546875 C 1.316406 -2.355469 1.570312 -2.257812 1.921875 -2.257812 Z "/>
</g>
</g>
</defs>
<g fill="rgb(0%, 0%, 0%)" fill-opacity="1">
<use xlink:href="#glyph-0-0" x="30" y="25.561523"/>
<use xlink:href="#glyph-0-1" x="34" y="25.561523"/>
<use xlink:href="#glyph-0-2" x="38" y="25.561523"/>
<use xlink:href="#glyph-0-3" x="40" y="25.561523"/>
</g>
</svg>
