<?xml version="1.0" encoding="UTF-8"?>
<svg xmlns="http://www.w3.org/2000/svg" xmlns:xlink="http://www.w3.org/1999/xlink" width="854" height="480" viewBox="0 0 854 480">
<defs>
<g>
<g id="glyph-0-0">
<path d="M 1.960938 -0.109375 C 2.132812 -0.113281 2.25 -0.128906 2.3125 -0.148438 C 2.414062 -0.1875 2.46875 -0.257812 2.46875 -0.363281 C 2.46875 -0.402344 2.460938 -0.453125 2.449219 -0.511719 C 2.433594 -0.570312 2.414062 -0.628906 2.390625 -0.695312 L 1.945312 -1.796875 L 0.949219 -0.65625 C 0.90625 -0.609375 0.871094 -0.558594 0.839844 -0.507812 C 0.8125 -0.453125 0.796875 -0.398438 0.796875 -0.34375 C 0.796875 -0.242188 0.84375 -0.175781 0.933594 -0.144531 C 0.992188 -0.121094 1.089844 -0.109375 1.234375 -0.109375 L 1.234375 0 L -0.203125 0 L -0.203125 -0.109375 C -0.0429688 -0.128906 0.152344 -0.242188 0.382812 -0.457031 C 0.519531 -0.585938 0.722656 -0.800781 0.988281 -1.109375 L 1.820312 -2.074219 L 1.117188 -3.839844 C 1.054688 -4 0.984375 -4.101562 0.910156 -4.140625 C 0.835938 -4.183594 0.699219 -4.21875 0.507812 -4.242188 L 0.507812 -4.347656 L 2.265625 -4.347656 L 2.265625 -4.242188 C 2.082031 -4.21875 1.957031 -4.1875 1.886719 -4.15625 C 1.816406 -4.121094 1.785156 -4.054688 1.785156 -3.953125 C 1.785156 -3.925781 1.789062 -3.898438 1.792969 -3.871094 C 1.800781 -3.847656 1.8125 -3.8125 1.828125 -3.773438 L 2.28125 -2.609375 L 3.253906 -3.734375 C 3.289062 -3.769531 3.316406 -3.816406 3.34375 -3.867188 C 3.371094 -3.921875 3.386719 -3.96875 3.386719 -4.007812 C 3.386719 -4.09375 3.355469 -4.148438 3.300781 -4.171875 C 3.246094 -4.195312 3.136719 -4.21875 2.976562 -4.242188 L 2.976562 -4.347656 L 4.367188 -4.347656 L 4.367188 -4.242188 C 4.199219 -4.183594 4.066406 -4.117188 3.960938 -4.035156 C 3.855469 -3.953125 3.675781 -3.769531 3.429688 -3.492188 C 3.40625 -3.464844 3.25 -3.292969 2.964844 -2.964844 C 2.679688 -2.640625 2.492188 -2.421875 2.398438 -2.316406 L 3.085938 -0.597656 C 3.164062 -0.40625 3.253906 -0.277344 3.351562 -0.214844 C 3.449219 -0.148438 3.59375 -0.113281 3.78125 -0.109375 L 3.78125 0 L 1.960938 0 Z "/>
</g>
</g>
</defs>
<g fill="rgb(0%, 0%, 0%)" fill-opacity="1">
<use xlink:href="#glyph-0-0" x="30" y="25"/>
</g>
</svg>
